/* XPM */
static char *aa9110e3bfe54ca5e5c480258f75708aJyvGEsUVpt6ENTjX[] = {
/* columns rows colors chars-per-pixel */
"64 64 21 1 ",
"  c #030203",
". c gray9",
"X c gray13",
"o c #2F2F2F",
"O c #52626E",
"+ c #4A677D",
"@ c #FF7E00",
"# c #22B14C",
"$ c #2F3699",
"% c #6F3198",
"& c #858787",
"* c #8F9191",
"= c #949696",
"- c #9FA1A1",
"; c #A9ABAB",
": c #B4B4B4",
"> c #D3F9BC",
", c #9FB2C2",
"< c #B2C7D9",
"1 c #99D9EA",
"2 c #B1D0E8",
/* pixels */
"            .......................................ooo          ",
"   $     $  .......................................ooo$    $   $",
"  $ $    $  .......................................ooo$    $  $ ",
"  $ $  .....====================================------oo   $  $ ",
"  $ $  .....====================================------oo   $  $ ",
"   $   .....====================================------oo   $   $",
"       ..;;;===....................................---..        ",
"       ..;;;===....................................---..        ",
"       ..;;;===....................................---..        ",
"       ..;;;===..2222222222222222222222222222222...===..        ",
"   %   ..;;;===..2222222222222222222222222222222...===..   %   %",
"   %   ..;;;===..2222222222222222222222222222222...===..  % %  %",
"   %   ..---===..,,,++++++++,,,,,,,,,,++++++++,,...===..  % %  %",
"   %   ..---===..,,,++++++++,,,,,,,,,,++++++++,,...===..  % %  %",
"   %   ..---===..,,,++++++++,,,,,,,,,,++++++++,,...===..   %   %",
"       ..---===..222++++++++2222222222++++++++22...===..        ",
"       ..---===..222++++++++2222222222++++++++22...===..        ",
"       ..---===..222++++++++2222222222++++++++22...===..        ",
"       ..---===..,,,++++++++,,,,,,,,,,++++++++<<...===..        ",
"   1   ..---===..,,,++++++++,,,,,,,,,,++++++++<<...===..   1   1",
"  1 1  ..---===..,,,++++++++,,,,,,,,,,++++++++<<...===..  1 1  1",
"  1 1  ..;;;===..222++++++++2222222222++++++++22...===..  1 1  1",
"  1 1  ..;;;===..222++++++++2222222222++++++++22...===..  1 1  1",
"   1   ..;;;===..222++++++++2222222222++++++++22...===..   1   1",
"       ..;;;===..,,,,,,,,,,,,,,,,,,,,,,,,,,,,,,,...===..        ",
"       ..;;;===..,,,,,,,,,,,,,,,,,,,,,,,,,,,,,,,...===..        ",
"       ..;;;===..,,,,,,,,,,,,,,,,,,,,,,,,,,,,,,,...===..        ",
"  XXXXX..;;;===..2222222222222222222222222222222...===..XXXXX   ",
"  XXXXX..;;;===..2222222222222222222222222222222...===..XXXXX  #",
"  XXXXX..;;;===..2222222222222222222222222222222...===..XXXXX # ",
"XXXX===..---===..,,,,,,,,,,,,,OOO,,OOO,,,,,,,,,,...===..---XXXXX",
"XXXX===..---===..,,,,,,,,,,,,,OOO,,OOO,,,,,,,,,,...===..---XXXXX",
"XXXX===..---===..,,,,,,,,,,,,,OOO,,OOO,,,,,,,,,,...===..---XXXXX",
"XXXX===..---===..,,,,,,,,,,,,,OOO,,OOO,,,,,,,,,,...===..---XXXXX",
"XX=====..---===..2222222222222222OO2222222222222...===..=====XXX",
"XX=====..---===..2222222222222222OO2222222222222...===..=====XXX",
"XX=====..---===..2222222222222222OO2222222222222...===..=====XXX",
"XX&&===..---===..,,,,,,,,,,,,,,,,,,,,,,,,,,,,,,,...===..===&&XXX",
"XX&&===..---===..,,,,,,,,,,,,,,,,,,,,,,,,,,,,,,,...===..===&&XXX",
"XX&&===..---===..,,,,,,,,,,,,,,,,,,,,,,,,,,,,,,,...===..===&&XXX",
"XXXX&&&..---===..2222222222222222222222222222222...===..***XXXXX",
"XXXX&&&..---===..2222222222222222222222222222222...===..***XXXXX",
"XXXX&&&..---===..2222222222222222222222222222222...===..***XXXXX",
"  XXXXX..;;;===....................................===..XXXXX   ",
"  XXXXX..;;;===....................................===..XXXXX   ",
"  XXXXX..;;;===....................................===..XXXXX   ",
"   >   .....==========================================..   >   >",
"  > >  .....==========================================..   >  > ",
"  > >  .....==========================================..   >  > ",
"  > >   >............................................. >   >  > ",
"   >     .............................................>    >   >",
"         .............................................          ",
"                 XXXXXXXXXXXXX     XXXXXXXXXXXXX                ",
"                 XXXXXXXXXXXXX     XXXXXXXXXXXXX                ",
"                 XXXXXXXXXXXXX     XXXXXXXXXXXXX                ",
"   @     @    @XXXXX--======XX   @ XXX=====---XXXXX   @    @   @",
"  @ @   @ @   @XXXXX--======XX   @ XXX=====---XXXXX  @ @   @   @",
"  @ @   @ @   @XXXXX--======XX   @ XXX=====---XXXXX  @ @   @   @",
"  @ @   @ @   @XX---========XX   @ XXX========--XXX  @ @   @   @",
"   @     @    @XX---========XX   @ XXX========--XXX   @    @   @",
"               XX---========XX     XXX========--XXX             ",
"               XXXXXXXXXXXXXXX     XXXXXXXXXXXXXXXX             ",
"   :     :    :XXXXXXXXXXXXXXX   : XXXXXXXXXXXXXXXX   :    :   :",
"  : :   : :   :XXXXXXXXXXXXXXX   : XXXXXXXXXXXXXXXX   :   : :  :"
};
