/* XPM */
static char *_ec0e735144e475fa1a3256b8eefb0772vKhmxrDj2ktmJLz[] = {
/* columns rows colors chars-per-pixel */
"64 64 206 2 ",
"   c None",
".  c #020202",
"X  c #0B0504",
"o  c #05090C",
"O  c #0C0A0A",
"+  c #0B0806",
"@  c #140204",
"#  c #1C0205",
"$  c #130A06",
"%  c #1C0D07",
"&  c #140D0A",
"*  c #1B0E09",
"=  c #1D0609",
"-  c #1E100B",
";  c #091218",
":  c gray8",
">  c #191313",
",  c #1C1B1C",
"<  c #250206",
"1  c #2A0307",
"2  c #2D0308",
"3  c #210F09",
"4  c #340309",
"5  c #3B030A",
"6  c #25120B",
"7  c #2B160D",
"8  c #2E180F",
"9  c #33190F",
"0  c #36190E",
"q  c #2A1912",
"w  c #331A10",
"e  c #3B1F13",
"r  c #2E231E",
"t  c #3E2116",
"y  c #372017",
"u  c #0E1C26",
"i  c #10242F",
"p  c #112431",
"a  c #2C2A2A",
"s  c #232222",
"d  c #3B3B3B",
"f  c #3F2A22",
"g  c #44030B",
"h  c #431F11",
"j  c #442214",
"k  c #4B2415",
"l  c #492618",
"z  c #4D2919",
"x  c #522615",
"c  c #5C2B17",
"v  c #532B1B",
"b  c #5B2D1B",
"n  c #552916",
"m  c #5C311F",
"M  c #612E1A",
"N  c #63321D",
"B  c #6B341D",
"V  c #5A3424",
"C  c #463D3D",
"Z  c #643522",
"A  c #6C3621",
"S  c #643927",
"D  c #6E3923",
"F  c #6C3E2B",
"G  c #753C25",
"H  c #793E26",
"J  c #7C3E28",
"K  c #763F29",
"L  c #4E4039",
"P  c #7D422A",
"I  c #7F4027",
"U  c #764634",
"Y  c #1A3A4E",
"T  c #434343",
"R  c #4D4B4A",
"E  c #5A5756",
"W  c #5A4E4E",
"Q  c #785346",
"!  c #6C6968",
"~  c #7D7878",
"^  c #803D2A",
"/  c #84452C",
"(  c #8A432D",
")  c #86482F",
"_  c #8B492E",
"`  c #824127",
"'  c #914B2F",
"]  c #854B33",
"[  c #8C4C32",
"{  c #864F39",
"}  c #954433",
"|  c #9D4536",
" . c #934D31",
".. c #984F31",
"X. c #8D533B",
"o. c #935135",
"O. c #9D5335",
"+. c #955439",
"@. c #99573B",
"#. c #9D593E",
"$. c #AD493C",
"%. c #A54739",
"&. c #A15337",
"*. c #A45538",
"=. c #AA543B",
"-. c #A4593A",
";. c #AC5E3F",
":. c #B4553E",
">. c #AF603F",
",. c #8D5A46",
"<. c #BA4D43",
"1. c #A25D41",
"2. c #AF5F40",
"3. c #BB5442",
"4. c #B75540",
"5. c #88655A",
"6. c #916350",
"7. c #9C705E",
"8. c #94634F",
"9. c #A66145",
"0. c #AA6346",
"q. c #AD6648",
"w. c #AD694D",
"e. c #B36444",
"r. c #B16749",
"t. c #B46B4C",
"y. c #BA6B4C",
"u. c #BB6947",
"i. c #BA6F50",
"p. c #BD7152",
"a. c #AA6A50",
"s. c #937367",
"d. c #91766D",
"f. c #A77B69",
"g. c #C25645",
"h. c #CA5749",
"j. c #C85647",
"k. c #DA554F",
"l. c #D5584D",
"z. c #D0534D",
"x. c #E25852",
"c. c #EB5956",
"v. c #C36E4B",
"b. c #C9724F",
"n. c #C37556",
"m. c #CB7551",
"M. c #C77959",
"N. c #CB7B5B",
"B. c #CB7856",
"V. c #D47B56",
"C. c #D17E5D",
"Z. c #D87D58",
"A. c #D87C57",
"S. c #D5665B",
"D. c #9F8077",
"F. c #AA8778",
"G. c #D2805F",
"H. c #DA815D",
"J. c #CB8264",
"K. c #C68063",
"L. c #D58261",
"P. c #DA8664",
"I. c #DD8966",
"U. c #DB8B6B",
"Y. c #D2886A",
"T. c #DE9172",
"R. c #DE817C",
"E. c #E18B69",
"W. c #E09374",
"Q. c #8D8E8E",
"!. c #948887",
"~. c gray58",
"^. c #B19083",
"/. c #A7928F",
"(. c #B8A198",
"). c #ABAAA9",
"_. c #BAA7A5",
"`. c #BDBCBC",
"'. c #D19388",
"]. c #C7AFAF",
"[. c #CCB9B3",
"{. c #C7B6B5",
"}. c #D7BFBF",
"|. c #CEC0BB",
" X c #D5C5C1",
".X c #DDC7C7",
"XX c #D8CAC5",
"oX c #DDD2CE",
"OX c #DBDBDB",
"+X c #D5D2D2",
"@X c #C6C6C7",
"#X c #E3CECE",
"$X c #E6D9D7",
"%X c #E9E0DD",
"&X c #E6E6E6",
"*X c #EDECEC",
"=X c #EDE6E3",
"-X c #F4ECEB",
";X c #F1E4E4",
":X c #F5F1EF",
">X c #F4F2F2",
",X c #F9F5F5",
"<X c #FDFDFD",
"1X c #FDFDFC",
"2X c #FEFEFE",
"3X c #FEFDFD",
/* pixels */
"                                                                                                                                ",
"                                                                                                                                ",
"                                                                                                                                ",
"                                                                                                                                ",
"                                                                                                                                ",
"                                                & P D O                                                                         ",
"                                                v y q [ o       6 +                                                             ",
"                                                O t O -.V   + e.Z                                                               ",
"                                                    + b._ O X.O.m                                                               ",
"                        . . . . X                   . O o.t v.O.H l w 9 $ . .                                                   ",
"                    . 7 ` *.u.m.* .             . e G _ O.O.O.O.O.O.O.O. .H A * .                   . . .                       ",
"                  . l _ / x N O.b.y .       . z G / a.O.O.O.O.O.O.O.O.O.O.O...G G $ .           - e.m.v.#.X                     ",
"                  X G O.S M.K j _ m.X . . v G ,.'.O.O.O.O.O.O.O.O.O.O.O.O.O.O.O. .G b .     . X.e.O.H H O.O..                   ",
"                  7 H A W.A.T.-.j ..S $ G G F.9.O.O.O.O.O.O.O.O.O.O.O.O.O.O.O.O.O.O.H G $ + F -.N j b K h O.w                   ",
"                  q G G T.Z.Z.Z.D x _ G G { O.O.O.D  .O.O.O.O.O.O.O.O.O.O.O.O.O.O.O.O.H G $ e.k k B.U.Z.K./ N .                 ",
"                  & G  .T.H.Z.Z.Z.B G G G O.O.O.O.t . O.O.O.O.O.O.O.O.O.O.O.O.O.O.O.O.O.G G N k Z.Z.Z.Z.W.` b .                 ",
"                  . G _ K.T.I.H./ G G G O.O.O.O.O._ - . z O.O.O.O.O.O. .$ . . G O.O.O.O.o.G G A.Z.Z.Z.U.J.O.7                   ",
"                    X G  .T.T.#.G G G ..O.O.O.O.O.....O.G $ O.O.O.O.m * l Z P P O.O.O.O.O.G G ] U.I.T.T.[ P .                   ",
"                      + - / K.G G G J O.O...,.[.>X<X<X<X:Xf.G O.O.o.O.' 6. X=X=XXX^.] ..O./ G G Y.T.T.r.` *                     ",
"                          . A G G G O.O.7.,X<X<X<X<X>Xs + a  XO.O.O.P +XT T OX<X<X<X<X:X,...G G X.U.[ G $ +                     ",
"                          $ G G G H _ _.<X<X<X<X<X<X+ ~ R . : F.O.P +X. . &X+ OX<X<X<X<X<Xs.G G G G l .                         ",
"                        . N G G G G [.<X<X<X<X<X<X*Xa O . . . *X` %Xd . . + @Xd <X<X<X<X<X<XQ G G * .                           ",
"                        . G G G G Q <X<X<X<X<X<X<X,Xo p o i . 1XX.<XT ; . . ; T <X<X<X<X<X<X,XA G z +                           ",
"                        6 G G G G oX<X<X<X<X<X<X<X<X~ u Y u ~.<X{ <X&X; Y Y o &X<X<X<X<X<X<X<XZ G G +                           ",
"                      . b G G G G -X<X<X<X<X<X<X1X/.d.[.`.>X<XF._ -X<X*X! L (.$X<X<X<X<X<X<X<XU G G X                           ",
"                      . G G G G G XX<X<X<X<X<XoXG O.O.O.H ,.] ..O.` F.8.J O.O._ 5.<X<X<X<X<X<Xb G G j                           ",
"                      . G G G G / M 1X<X<X<XD...O.O.O.O.O.O.O.O.O.O.O.O.O.O.O.O.O.D >X<X<X<X|.H H G G .                         ",
"                      * G G G ^ =.=.G 5.s.H O.O.O.O.O.O.O.O. .Z Z v b ` O.O.O.O.O.O.I d.[.s.^ ( / J G X                         ",
"      R               j G G / $.S.j.=.&.O.O.O.O.O.O.O.O.t . . . . . . . . l O.O.O.O.O.&.=.:.g.$.| / H e                         ",
"      d.E   Q.      X N G H | R.c.x.g.&.O.O.O.O.O.O.O.> OX. . . . . . . . . r O.O.O.O.*.:.j.x.k.<.} J A .       E >   ).        ",
"      : c ' / 7     $ G G H %.k.c.x.j.*.O.O.O.O.O.O.P O . . . . . . . . . . : [ O.O.O.*.3.l.c.c.'.| ^ H .       T $ s {.        ",
"  ! ).6 O.V.B.y.7   . G G G } j.x.k.3.&.O.O.O.O.O.O.[ : . . . . . . . . . . ,  .O.O.O.*.:.h.x.k.<.} J H .     m *.V.O.6   ~.    ",
"    Q.6 m.>.Z.H.;.. . G G G J } g.3.*.O.O.O.O.O.O.O.O.V + . . . . . . . . , V O.O.O.O.&.=.3.3.$.| ( H G .   w 2.e.u.;.N Q._.    ",
"      X ..e.Z.Z.y.G X G G G G H O.&.O.O.O.O.O.O.O.O.O.O.[ r o . . . . : f P O.O.O.O.O.O.&.*.( ( ^ J G G X . *.Z.Z.V.u.c W       ",
"        n O.-.-.O. .$ G G G G G H O.O.O.O.O.O.O.O.O.O.O.O.O.O.O._ / _ O.O.O.O.O.O.O.O.O._ b X X . w G G $ l O.U.Z.u.O.0         ",
"        . _ O.O.O...6 G G G G G G D A G _ o.O.O.O.O.O.O.O.O.O.O.O.O.O.O.O.O.O.O.O.O./ v X 4 g g g X D G * N O.O.O.O.B .         ",
"          3 O.O.O._ w G G G G j @ 4 5 2 @ X 8 D ..O.O.O.O.O.O.O.O.O.O.O.O.O.O.[ G 9 X 4 g g g g g X G G 7 A O.O.O._ $           ",
"            c ..O.M e G G G A < g g g g g g g 4 X * N / D e 7 b _ N j e b G j X < g g g g g g g g $ G G 7 c O.O.O.0             ",
"            X B B x j G G G z 5 g g g g g g g g g g 2 . !.>X<X.XO  X-X-X[.+ + g g g g g g g g g @ D G G 7 x / ` c .             ",
"              0 B x l G G G G # g g g g g g g g g g g . $X<X<X1X~ <X<X<X<XC 5 g g g g g g g g 4 j G G G w k B B $               ",
"              . k n z G G G P j 4 g g g g g g g g g g X -X<X<X<X!.<X<X<X1Xa g g g g g g g g 1 7 G G G G w x B 0 .               ",
"                $ h t G G G O.P e 1 g g g g g g g g g @ >X<X<X<X}.<X<X<X,X> g g g g g g g @ j G G  .G G 8 n k .                 ",
"                . 9 7 G G G O.O. .G 7 2 g g g g g g g < ,X<X<X<X.X<X<X<X;X= g g g g g < X D G  .O. .G G 6 k 7                   ",
"                  . * G G G O.O.O.O._ G v 3 1 5 g g g 1 ,X<X<X<X#X<X<X<X#X2 g g 5 # X b G _ O.O.O. .G G & j .                   ",
"                  + + G G G O.O.O.O.O.O.O._ H G Z t 7 X ;X<X<X<X#X<X<X<X].X X + 8 A H  .O.O.O.O.O. .G G $ 7 .                   ",
"                  + . G G G O.O.O.O.O.O.O.O.O.O.O.o. .Z _.<X<X<X].<X<X<XW G H / O.O.O.O.O.O.O.O.O._ G G $ .                     ",
"                    . G G G O.O.O.O.O.O.O.O.O.O.O.O.O./ e E {./.& _..X_.w _ O.O.O.O.O.O.O.O.O.O.O./ G G X .                     ",
"                    . G G G O.O.O.O.O.O.O.O.O.O.O.O. .@.t.n.L.I.I.G.w.1.[ _ O.O.O.O.O.O.O.O.O.O.O.P G G . .                     ",
"                    . N G G O.O.O.O.O.O.O.O.O. .t.I.I.I.I.I.I.E.E.E.E.E.E.E.I.1...O.O.O.O.O.O.O.O.H G G .                       ",
"                    . j G G ..O.O.O.O.O.O. .M.L.L.L.L.L.L.L.L.L.P.P.P.P.P.P.I.I.I.t._ O.O.O.O.O.O.G G D .                       ",
"                    . 8 G G _ O.O.O.O. .q.M.M.M.M.M.M.M.M.N.N.N.N.N.N.C.C.C.G.G.L.L.L.o.O.O.O.O.O.G G b .                       ",
"                      * G G ` O.O.O./ t.t.y.i.i.p.p.p.p.p.p.n.n.n.n.n.n.n.n.n.M.M.M.M.M.0.' O.O.O.G G e .                       ",
"                      X G G H O.O.P 0.0.0.0.0.0.q.q.q.q.r.r.r.t.t.t.t.t.t.y.y.i.i.p.p.p.p.q._ O./ G G *                         ",
"                      . G G G O./ @.@.@.@.#.#.#.#.#.1.1.1.1.1.1.9.9.9.0.0.0.0.0.q.q.q.q.r.r.[ _ G G G .                         ",
"                      . D G G O.P ] [ [ [ [ [ [ [  .o.o.o.+.+.@.@.@.@.@.@.#.#.#.#.#.1.1.1.1.1.G G G G .                         ",
"                        X G G G G G J P P P P P P / / / / / ) ) ] [ [ [ [ [ [ [ [ [ o.o.o.+.+.] G G 6 .                         ",
"                          X G G B B B B A A A D G G G G G G G G G H P P P P P P P / / / / / ) ) G w .                           ",
"                            . * h n c c c M M M M M N N N N B B B B B B A A A G G G G G A m v 7 . .                             ",
"                                    . . . . . . . X $ % % 6 6 6 6 6 6 % $ $ $ X . . . . .                                       ",
"                                                                                                                                ",
"                                                                                                                                ",
"                                                                                                                                ",
"                                                                                                                                ",
"                                                                                                                                "
};
