/* XPM */
static char *_cd4f2a40aad49d9981bb5af24eb20cbFAcOtw9HPlOxbSAU[] = {
/* columns rows colors chars-per-pixel */
"57 64 129 2 ",
"   c None",
".  c #31312E",
"X  c #353431",
"o  c #3B3937",
"O  c #423F3D",
"+  c #4D4946",
"@  c #4C4A49",
"#  c #514E4B",
"$  c #5F5A57",
"%  c #67635F",
"&  c #656464",
"*  c #696562",
"=  c #6D6B6A",
"-  c #716E6D",
";  c #74716F",
":  c #767473",
">  c #797675",
",  c #7B7876",
"<  c #7D7A79",
"1  c #817E7D",
"2  c #84807F",
"3  c #868381",
"4  c #898685",
"5  c #8C8887",
"6  c #888688",
"7  c #8E8B8A",
"8  c #918E8D",
"9  c #93908F",
"0  c #98928F",
"q  c #959391",
"w  c #9A9593",
"e  c #9B9896",
"r  c #9D9B9A",
"t  c #A19E9D",
"y  c #A3A09F",
"u  c #A5A3A2",
"i  c #A9A6A5",
"p  c #ABA8A7",
"a  c #AEABAA",
"s  c #B1AEAD",
"d  c #B3B0AF",
"f  c #B5B3B2",
"g  c #B9B6B5",
"h  c #BAB8B7",
"j  c #BCBABA",
"k  c #C1BFBE",
"l  c #C3C0BF",
"z  c #C5C3C2",
"x  c #C8C5C5",
"c  c #C8C6C5",
"v  c #C9C6C5",
"b  c #C8C7C5",
"n  c #C9C7C6",
"m  c #C9C6C6",
"M  c #CAC7C7",
"N  c #C8C4C2",
"B  c #C9C8C6",
"V  c #CAC9C7",
"C  c #CCC8C6",
"Z  c #C9C8C8",
"A  c #CAC8C8",
"S  c #CBC9C8",
"D  c #CBC8C8",
"F  c #CCC9C9",
"G  c #CCCAC9",
"H  c #CDCBC9",
"J  c #CDCBCA",
"K  c #CDCACA",
"L  c #CDCCCA",
"P  c #CDCCCB",
"I  c #CECCCB",
"U  c #CECDCB",
"Y  c #CECDCC",
"T  c #CFCDCC",
"R  c #CFCECC",
"E  c #CFCECD",
"W  c #D0CECD",
"Q  c #D0CFCE",
"!  c #D1CFCE",
"~  c #D1CDCB",
"^  c #D1D0CF",
"/  c #D2D0CF",
"(  c #D3D0CE",
")  c #D2D0D0",
"_  c #D2D1D0",
"`  c #D3D1D0",
"'  c #D3D2D1",
"]  c #D4D2D1",
"[  c #D4D2D2",
"{  c #D4D3D2",
"}  c #D4D4D3",
"|  c #D5D4D3",
" . c #D6D4D3",
".. c #D6D5D3",
"X. c #D6D5D4",
"o. c #D7D6D4",
"O. c #D7D6D5",
"+. c #D8D7D5",
"@. c #D8D7D6",
"#. c #D9D8D6",
"$. c #D9D8D7",
"%. c #DBDAD9",
"&. c #DCDAD9",
"*. c #DCDADA",
"=. c #DCDCDA",
"-. c #DDDCDB",
";. c #DEDCDB",
":. c #DFDEDE",
">. c #E0DFDE",
",. c #E0E0DF",
"<. c #E2E1E0",
"1. c #E3E2E1",
"2. c #E3E2E2",
"3. c #E4E3E2",
"4. c #E5E4E3",
"5. c #E6E5E4",
"6. c #E6E5E5",
"7. c #E7E6E6",
"8. c #E8E8E6",
"9. c #E8E8E7",
"0. c #EAE9E8",
"q. c #EAE9E9",
"w. c #EAEAE9",
"e. c #EBEAE9",
"r. c #EDEDEC",
"t. c gray93",
"y. c #F0F0EF",
"u. c #F1F1F0",
"i. c #F2F2F1",
/* pixels */
"                    c c c c c Z                                                                                   ",
"                    N 3.i.i.i.9.{ c c                                                                             ",
"                      z | @.#.2.y.i.e.K c                                                                         ",
"                        z { X.X.X.@.9.i.t.V x                                                                     ",
"                          k ) | | | X.X.9.y.:.z                                                                   ",
"                            k ) ) { { | | #.t.e.z                                                                 ",
"                              j / ) ) ) ) { { e.e.l                                                               ",
"                                j Q Q / / ) ) ) 6.6.k                                                             ",
"  f                             h j Y Y Q Q Q / / 6.%.j                                                           ",
"  g s                             g z I I I Y Y Q / 2.z                                                           ",
"a j ) s                             f Z K K K I I Y | ;.h                                                         ",
"a j *.h a                           f k c Z Z K K K K *.g                                                         ",
"p j j 6.a                           s j x c c c c Z Z I g                                                         ",
"p g h c 2.p                         s j z z N x x c c c f                                                         ",
"u f g g @.X.p                     a a l z z z z z z N z s                                                         ",
"y d f f f 2.z u                 p f h k k k k l z z z f                                                           ",
"t p s f d f 4.f u             p g g j j j j j k k k k a                                                           ",
"  t s s s s f 2.s y       u u j h h h h j j j j j j p                                                             ",
"  e a a a s s j >.f t t t s N j f g g g g h h h h a p                                                             ",
"  e f p a a a a j ;.| K Q Z f f f f f f f g g g g u y                                                             ",
"    y f p p p a a a z k d s s s s s f f f f h j u d p y                                                           ",
"    q z a u p p p p p a a a a a a s s s s k z u e e h u t                                                         ",
"    q u c u u u u p p p p p p a a a a d c c p e w w t h t                                                         ",
"      8 V I y y u u u u u p p p p p z Y Y p w 9 q w e u h t                                                       ",
"        7 { ) u t t y y u u u u j { { I w 9 5 8 9 q w e a f t                                                     ",
"        7 q #.#.I u t t t a V #.#.#.p q 4 4 5 7 8 9 q w e f s t                                                   ",
"          7 w ;.;.;.;.;.;.;.;.;.f 8 5 1 3 3 4 5 7 8 9 q w e h p y                                                 ",
"            6 7 X.,.,.,.,.| u 7 7 > e 1 1 3 3 4 5 7 8 9 q w e h u y                                               ",
"                6 6 7 7 6 4         < w 1 1 3 3 4 5 7 8 q q w r h t                                               ",
"                                    > 3 0 1 1 3 3 4 5 7 8 q q w u h t                                             ",
"                                      > 5 8 1 1 3 4 4 5 7 8 9 q w a f t                                           ",
"                                        > q 5 1 1 3 4 4 5 7 8 9 q w f s t                                         ",
"                                          > e 3 1 1 3 4 4 5 7 8 9 q w h p y                                       ",
"                                            > e 1 1 1 3 4 4 5 7 8 9 q w h y t                                     ",
"                                              < w < 1 1 3 4 4 5 7 8 q q e h t                                     ",
"                                              > 3 q < 1 2 3 4 4 5 7 8 q q u h t                                   ",
"                                                > 5 8 < 1 2 3 4 4 5 7 8 q q a f t                                 ",
"                                                  > q 5 < 1 2 3 4 4 5 8 8 q q f a t                               ",
"                                                    > e 3 < 1 2 3 4 5 5 8 8 q q h p t                             ",
"                                                      > e 1 < 1 2 3 4 5 5 8 8 q w h y t                           ",
"                                                        < w < < 1 2 3 4 5 5 8 9 q e h r                           ",
"                                                        : 3 q < < 1 2 3 4 5 5 8 9 q u h r                         ",
"                                                          : 5 8 < < 1 2 3 4 5 5 8 9 q a f t                       ",
"                                                            > q 5 < < 1 3 3 4 5 5 8 9 q f a t                     ",
"                                                              > e 2 < < 1 3 3 4 5 5 8 9 q h u t                   ",
"                                                                > e < < < 1 3 3 4 5 5 8 9 q h t t y               ",
"                                                                  < w > < < 1 3 3 4 5 5 8 9 e h h f p u           ",
"                                                                  : 3 q > < 1 1 3 3 4 5 5 8 9 q w u h j p p       ",
"                                                                    : 5 8 > < 1 1 3 3 4 5 7 8 8 q w e t j s p     ",
"                                                                      : w 5 > < 1 1 3 3 3 # O o X X > e e j p     ",
"                                                                        : e 1 > < 1 1 > # +         . @ e r j u   ",
"                                                                          > e < > < < $               . = e f a   ",
"                                                                            < e > > = %               . X w r j u ",
"                                                                            : w 1 > -                   o 5 w j u ",
"                                                                            : u , : :                   O 1 q j t ",
"                                                                            - p 1 ; <                   + 4 9 h r ",
"                                                                              q t - 1 1                 # 7 q h e ",
"                                                                              - N = ; 3               $ * 5 t u e ",
"                                                                              = z 5 = < 4 2         * * 4 4 y q   ",
"                                                                                = / - = > 4 2 1 , ; : 2 3 5 q 9   ",
"                                                                                = 1 ~ < = - : > > < < 1 > 3 7     ",
"                                                                                  = > C s > - : : > : & < 4       ",
"                                                                                      = 6 s s t 8 2 , 2 3         ",
"                                                                                          = : : > < <             "
};
