/* XPM */
static char *db6916a39d23459d82423987c61df05cn8Njo6OvV3GSy2cr[] = {
/* columns rows colors chars-per-pixel */
"64 35 229 2 ",
"   c None",
".  c #1C0A03",
"X  c #1A0702",
"o  c #1F1504",
"O  c #210502",
"+  c #240D03",
"@  c #2D0C03",
"#  c #280507",
"$  c #330B00",
"%  c #3D0A0B",
"&  c #370704",
"*  c #291705",
"=  c #3C1C09",
"-  c #351405",
";  c #3D2A03",
":  c #342306",
">  c #3D3309",
",  c #2D2407",
"<  c #450A00",
"1  c #4E0E01",
"2  c #440B0C",
"3  c #491A07",
"4  c #541A02",
"5  c #591609",
"6  c #651B01",
"7  c #651A0A",
"8  c #4B2400",
"9  c #45250C",
"0  c #482807",
"q  c #592909",
"w  c #493806",
"e  c #5C3C0C",
"r  c #59360B",
"t  c #5A2714",
"y  c #4E2D13",
"u  c #6C2B04",
"i  c #682A0B",
"p  c #702F01",
"a  c #633401",
"s  c #693F07",
"d  c #783708",
"f  c #6B2D1A",
"g  c #742D1B",
"h  c #6D371A",
"j  c #7E3911",
"k  c #74321C",
"l  c #7C3E1B",
"z  c #78331B",
"x  c #533A23",
"c  c #643422",
"v  c #733325",
"b  c #74362A",
"n  c #7A3B2D",
"m  c #6C3529",
"M  c #5B4A12",
"N  c #67470C",
"B  c #754806",
"V  c #69570C",
"C  c #68481A",
"Z  c #7E401D",
"A  c #74531D",
"S  c #7A5815",
"D  c #6D5517",
"F  c #7D7613",
"G  c #684728",
"H  c #7A4123",
"J  c #734B29",
"K  c #695B24",
"L  c #7B5C2C",
"P  c #765722",
"I  c #7D4534",
"U  c #7C5838",
"Y  c #7A6939",
"T  c #7B6A31",
"R  c #735C42",
"E  c #7B7055",
"W  c #833B0D",
"Q  c #863503",
"!  c #843F14",
"~  c #823F30",
"^  c #884409",
"/  c #824319",
"(  c #8B5B1B",
")  c #9B5A1A",
"_  c #8A590E",
"`  c #A0571F",
"'  c #937F14",
"]  c #AA6A06",
"[  c #AD710D",
"{  c #814523",
"}  c #8F4A2A",
"|  c #934E25",
" . c #92542D",
".. c #8D4E3E",
"X. c #824538",
"o. c #985636",
"O. c #8C5F37",
"+. c #A45C32",
"@. c #896A2D",
"#. c #966B23",
"$. c #867523",
"%. c #9B732A",
"&. c #846333",
"*. c #8C6836",
"=. c #94733D",
"-. c #987734",
";. c #8C7B33",
":. c #AA6229",
">. c #AC663C",
",. c #AB673A",
"<. c #B96C33",
"1. c #BB753C",
"2. c #A97A2F",
"3. c #C27C2D",
"4. c #9B5B4B",
"5. c #995444",
"6. c #A15C4B",
"7. c #A85F45",
"8. c #A65F51",
"9. c #8B6A44",
"0. c #966345",
"q. c #9E6242",
"w. c #956C45",
"e. c #9D7B4A",
"r. c #9C7142",
"t. c #9D7A54",
"y. c #946D53",
"u. c #A76845",
"i. c #B56F4B",
"p. c #B06845",
"a. c #A27F43",
"s. c #A67949",
"d. c #BC7345",
"f. c #BB754D",
"g. c #B87649",
"h. c #A96656",
"j. c #B16B55",
"k. c #B26956",
"l. c #A77A59",
"z. c #BE7B51",
"x. c #B97A5A",
"c. c #B97454",
"v. c #AE7163",
"b. c #B47465",
"n. c #BB7665",
"m. c #B5766B",
"M. c #C27847",
"N. c #C27C52",
"B. c #C27F59",
"V. c #C07F6D",
"C. c #918312",
"Z. c #ABA31B",
"A. c #97863A",
"S. c #978F2A",
"D. c #A38A3E",
"F. c #B78838",
"G. c #A4943B",
"H. c #B6892B",
"J. c #BBAC30",
"K. c #D29817",
"L. c #D69A23",
"P. c #CD8A3B",
"I. c #C0972B",
"U. c #C1B82C",
"Y. c #9A9054",
"T. c #A88946",
"R. c #B48B46",
"E. c #B88E49",
"W. c #A99647",
"Q. c #BC9543",
"!. c #A28254",
"~. c #AC8B54",
"^. c #AB8C5D",
"/. c #A7875C",
"(. c #B48B5A",
"). c #A69B51",
"_. c #B49353",
"`. c #B8955A",
"'. c #BDAB41",
"]. c #BBAC4A",
"[. c #B8A856",
"{. c #BDB159",
"}. c #B2A54A",
"|. c #B68866",
" X c #B39362",
".X c #B69967",
"XX c #BC9B61",
"oX c #B4996A",
"OX c #B48469",
"+X c #BCA667",
"@X c #BDA572",
"#X c #C88447",
"$X c #C69B49",
"%X c #C78354",
"&X c #CA8455",
"*X c #C4835B",
"=X c #C88758",
"-X c #C49B55",
";X c #D09257",
":X c #C9A84A",
">X c #D3A645",
",X c #D8A646",
"<X c #C8A956",
"1X c #C5BA5C",
"2X c #C3B657",
"3X c #DAB359",
"4X c #CBB74A",
"5X c #E6BB56",
"6X c #D19A78",
"7X c #C2906B",
"8X c #C8A46F",
"9X c #C5BB6A",
"0X c #C8BA68",
"qX c #C7A677",
"wX c #D2AD79",
"eX c #CFB56A",
"rX c #E2B963",
"tX c #E3BD75",
"yX c #CBC150",
"uX c #E8C45E",
"iX c #CBC368",
"pX c #CAC174",
"aX c #CFC67B",
"sX c #D2C67F",
"dX c #E9C568",
"fX c #E8C574",
"gX c #D4B885",
"hX c #EBD389",
"jX c #E3DE96",
/* pixels */
"                                                                                                                                ",
"                                                                                                                                ",
"                                    E Y.).                                                                                      ",
"                                    K F Z.U.J.                                                                                  ",
"                                  > V C.J.yX:XW.                                                                                ",
"                                  w V ' '.eX[.R.^.                                        y OXO.u.                              ",
"                                , : V S -.D.T.T.~.oX                                    = q / :.3.1.                            ",
"                                o + e N A =.t.^.8X_.                                  = 3 d ` 1.&XM.u.                          ",
"                      5XfXfXhX  . X 0 N C L !.@X8XXX.X                                @ t f } j.c.p.7.4.                        ",
"                    5X5XdXdXdXgXx . 9 e C &.~.oX@X_.~.                              X # 5 i f ..4.4.6.v.                        ",
"                  >XtXuXfXwXu.i.z.0.q S A L =.~.~.`.XX                              X O 5 t c 5.h.m.7XV.h.                      ",
"                :X$X3XdXwX>.f.x.B.=Xz.,.P P &.a.~..XXX X                            O % g g I 5.h.b.OXn.k.                      ",
"                F.3X3X-Xq.>.i.N.*XB.M.d.g.P L a.(..X X~.                          + # 5 z k v ~ o.h.k.k.j.h.                    ",
"              ( ( -XR.U H o.p.c.d.d.N.&X%X*XY e.~.(.!.~.jX  hXfXfX5X              + # 5 g k v n 5.h.k.b.n.v.                    ",
"              N $X#.R.h l { o.+.,.d.*X6X%Xg.s.*.e.s.!.pXjXwXrXdXdX5X5XrX          @ & 5 z v b X.8.k.k.b.n.b.                    ",
"              a *.B w.i l { H / | >.z.|.u.<.1.&.=./.sX(.z.i.u.8XfXuXtX>X          & % 7 g b b I 5.8.k.v.v.v.                    ",
"                a S 9 q j ! ! j Z  .p.q.>.#XP.3.+X(.z.&XB.x.f.>.qXdX,X$X$X        % 2 7 f v b n ..4.4.h.4.h.                    ",
"                8 a $ < 6 Q W W W { k  .:.;X,XL.d.M.M.N.*Xf.i.>.o.`.3X3X$X        & 2 3 t f c c I 0.0.t.l. XgX                  ",
"                    - 1 1 1 6 d ^ u u j ) P.L.7X&X&X*Xd.d.f.p.o.H U E.-X#.(       + # @ 9 x G R y.@X+X9X1XiXaX                  ",
"                        J 8X4XH.6 4 u p ^ ] i.g.N.6X*Xf.,.+.o.{ l h R.#.Q.s       0 e K L A.A.}.2X1XpX1XiXiXpX                  ",
"                  oX_.`. Xr.<XI.y O & 4 d ( 1.<.u.x.z.>.| / Z { l i 9.s -.a       ; w w Y.[.}.{.{.9X].iX0X9XaX                  ",
"                T.T.qX`.~.a.*.H.#.+ O @ 3 3.#X&X>.q.u. .l j ! ! j q = B a         ; M M A.).W.{.].9X[.'.2X9X                    ",
"              '.4XT.!.=.&.L y %._       %.L.,X;X:. .h Z W W W Q 6 < $ a 8           w ; [.$.G.{.G.4XW.1X].                      ",
"              S.J.@.C P A A 9 A 9       H.K.K.P.) j u u ^ d 5 1 1 1 $                 0 A.$.D.W.).W.{.                          ",
"              Y V N r C r 0 + @         !.[ [ ] ^ p u 4 5 & & < 1           ,X3X          ;.$.A.Y.                              ",
"                w * . * =                 a.B B d 4 & X # $ $             $X>X<X(.                                              ",
"                                            w 8 8 @ O . + *             F.>X:X/.l. X                                            ",
"                                                                      ) 2.Q.9.w.^.^.^.                                          ",
"                                                                      r %.&.G 9.e.oX/.                                          ",
"                                                                      q C t J J U t.~.                                          ",
"                                                                        - 3 C A G &.'.                                          ",
"                                                                            * - 9 D T                                           ",
"                                                                                * >                                             ",
"                                                                                                                                ",
"                                                                                                                                "
};
