/* XPM */
static char *d43bd04d250f4a96f38333a32ed75cc0yw6GcMELCqX7VGHs[] = {
/* columns rows colors chars-per-pixel */
"45 64 243 2 ",
"   c None",
".  c #040404",
"X  c #070709",
"o  c #09080B",
"O  c #0E0E16",
"+  c #0F1115",
"@  c #13131A",
"#  c #120D16",
"$  c #1B1B2C",
"%  c #181525",
"&  c #1B0836",
"*  c #1C1B35",
"=  c #1A1C3B",
"-  c #0E112F",
";  c #2A093A",
":  c #281936",
">  c #321937",
",  c #300A3E",
"<  c #1E2437",
"1  c #28262B",
"2  c #272537",
"3  c #362B3B",
"4  c #342736",
"5  c #3D383A",
"6  c #22343F",
"7  c #413D3D",
"8  c #41273F",
"9  c #190D49",
"0  c #1E1E45",
"q  c #1C1949",
"w  c #1E0D55",
"e  c #1C1A52",
"r  c #260B43",
"t  c #2C0944",
"y  c #2A0A49",
"u  c #340D4A",
"i  c #281947",
"p  c #36174A",
"a  c #231D55",
"s  c #281757",
"d  c #361654",
"f  c #2E0A58",
"g  c #1B2543",
"h  c #1F245E",
"j  c #272343",
"k  c #2D2345",
"l  c #2B2D44",
"z  c #242549",
"x  c #2B254B",
"c  c #282B4C",
"v  c #392C44",
"b  c #3D2C4B",
"n  c #372748",
"m  c #25344A",
"M  c #3E3342",
"N  c #3E314B",
"B  c #32394D",
"V  c #232454",
"C  c #252B54",
"Z  c #2E2A54",
"A  c #2C2D5C",
"S  c #25265D",
"D  c #342D55",
"F  c #322D5C",
"G  c #3C2D5D",
"H  c #392757",
"J  c #2D335B",
"K  c #273255",
"L  c #34345B",
"P  c #3B395B",
"I  c #393656",
"U  c #221B62",
"Y  c #2D1C6A",
"T  c #391C68",
"R  c #1F2863",
"E  c #2B2C64",
"W  c #23246D",
"Q  c #242A69",
"!  c #2D2D6E",
"~  c #262468",
"^  c #352D64",
"/  c #322D6B",
"(  c #392863",
")  c #2C3464",
"_  c #353464",
"`  c #3D3465",
"'  c #3C3B64",
"]  c #34336B",
"[  c #3D346C",
"{  c #3C3B6C",
"}  c #323967",
"|  c #282773",
" . c #2C2A72",
".. c #262673",
"X. c #342D73",
"o. c #3B2D7B",
"O. c #322876",
"+. c #2E3077",
"@. c #393978",
"#. c #421F53",
"$. c #422C4C",
"%. c #412446",
"&. c #433A43",
"*. c #42354C",
"=. c #453848",
"-. c #462957",
";. c #443354",
":. c #4A3B54",
">. c #45355C",
",. c #4C3C5B",
"<. c #483757",
"1. c #523C5A",
"2. c #512A5E",
"3. c #551B6A",
"4. c #4A2868",
"5. c #59276B",
"6. c #4B3C66",
"7. c #4B326E",
"8. c #423B6C",
"9. c #473668",
"0. c #523E62",
"q. c #52336B",
"w. c #533A6A",
"e. c #583668",
"r. c #4C2E78",
"t. c #443C71",
"y. c #4B3B7B",
"u. c #453778",
"i. c #513B7C",
"p. c #5A3879",
"a. c #562873",
"s. c #653A6F",
"d. c #613778",
"f. c #62257D",
"g. c #3E415F",
"h. c #39436C",
"j. c #3B4178",
"k. c #4B424C",
"l. c #474346",
"z. c #4C4454",
"x. c #4E445B",
"c. c #53455C",
"v. c #554C5C",
"b. c #574A58",
"n. c #585158",
"m. c #4B446E",
"M. c #48456C",
"N. c #554363",
"B. c #5A4B63",
"V. c #5B456D",
"C. c #5B4C6B",
"Z. c #584766",
"A. c #5C5363",
"S. c #424274",
"D. c #494273",
"F. c #4C427B",
"G. c #4A4A7D",
"H. c #454679",
"J. c #594474",
"K. c #5C4A73",
"L. c #514A7F",
"P. c #534478",
"I. c #485577",
"U. c #5A547A",
"Y. c #465F6F",
"T. c #604C6A",
"R. c #615466",
"E. c #624273",
"W. c #624D74",
"Q. c #65437C",
"!. c #69487A",
"~. c #75487A",
"^. c #69517E",
"/. c #645578",
"(. c #715B78",
"). c #4E737D",
"_. c #736377",
"`. c #6F6F76",
"'. c #3E3B82",
"]. c #443A85",
"[. c #4C3D82",
"{. c #453B8B",
"}. c #483787",
"|. c #593D85",
" X c #4C3F93",
".X c #503E92",
"XX c #432E81",
"oX c #663B86",
"OX c #72338E",
"+X c #3F4B80",
"@X c #444283",
"#X c #4C438C",
"$X c #4A4A8D",
"%X c #474985",
"&X c #524383",
"*X c #584687",
"=X c #4A5487",
"-X c #575687",
";X c #4A4A95",
":X c #554B91",
">X c #574894",
",X c #4C5493",
"<X c #4C539B",
"1X c #555593",
"2X c #5E5F97",
"3X c #6A488A",
"4X c #744B88",
"5X c #675787",
"6X c #79588A",
"7X c #6A4394",
"8X c #634998",
"9X c #645B93",
"0X c #6B569C",
"qX c #69569B",
"wX c #71599B",
"eX c #775795",
"rX c #734394",
"tX c #596092",
"yX c #596E84",
"uX c #67678A",
"iX c #786789",
"pX c #6B7585",
"aX c #646493",
"sX c #786995",
"dX c #697695",
"fX c #797795",
"gX c #6A55A2",
"hX c #7B5DA6",
"jX c #755DA5",
"kX c #7861A8",
"lX c #875A99",
"zX c #81668C",
"xX c #87669B",
"cX c #9058A7",
"vX c #A05FBB",
"bX c #8667A9",
"nX c #8876A5",
"mX c #836AB8",
"MX c #9672B9",
"NX c #6F8388",
"BX c #858991",
"VX c #888E96",
"CX c #8E86B2",
/* pixels */
"                                                                                          ",
"                                                                                          ",
"                                                                                          ",
"                                                                                          ",
"                                                                                          ",
"                                  v.M &.v.M 4 3 k.:.<.N.W.                                ",
"                            z.c.:.k.&.z.W.iX:.z.3 v :.;.0.Z.                              ",
"                          (.Z.x.z.z.v.v.v.R.V.0.> 4 3 ,.0.1.:.b.k.`.                      ",
"                      c.c.x.z.A.c.B.C.C./.C.C.C.J.K.N.: N $.T.:.z.l.7 5 l.                ",
"                    >.V.>.<.x.Z.<.:.*.<.0.V.W.W.V.J.W.^.p : p <.=.&.5 7 l.4 1             ",
"                sXuXsXiXiXiXW.,.N b n n b >.V.W.^.K.5X^.6Xq.: b 3 :.=.7 7 l.7 1 4         ",
"              CXnXsX5XW.0.-.p p d d d d d 4.!.J.sXW.^.xX5XsXp.q.iXb._.5 n.R.l.5 3         ",
"            sX5X/.V.$.> u d #.u u s a a s d d i.7.w.V.K.sXnXeXQ.xX(.R.R.n.n.&.&.v 8       ",
"          /.V.1.> p d t t ( e 0 g g m 2 m ~ Y ( G 7.w.E.K.6XeXwXxXzX(.R.B.A.k.A.%.>       ",
"        i > ; t y y d r r q a a S S ~ +.Q +.W '.{.r.4.q.d.!.Q.0XkXbXzXB.T.c.B.b.:.:.4     ",
"      ; ; , u y y t r q i a V E R W ..| | ..| ..W  .u.p.K.s.Q.0X0XhX6XT.,.:.,.B.c.=.3     ",
"      t 4.t r t 9 s s t.V V S ) R Q Q ..| | O. .O.'.o.r.!.4X3XjXwXwXlX4Xm.*.c.N.N $.-.    ",
"      - & t w w d Y a V } B B ) | O.o.].[.[.[.}.o.O.O.[.OX~.Q.4XwXgX7XoX6.;.;._.n G >.    ",
"    & & r U f T W e V K ) ! X.o.}.#X@XS.' P I P { o.X.] oXOXQ.eXbXgX8XhX-.;.;.Z.n N ;.;.  ",
"    9 9 q H ^ U e C S Q ! o.}. X@XM.n $ @ + + + @ 2 L / @.oX~.MX3XqX8X9X9.$.;.<.*.M z.b.  ",
"    ; : l C U e m K Q  .XX}.].%X,.% + X . . . . . . . 2 ^ F.~.eX3X8XqXbXJ.;.c.=.b N v &.  ",
"    1 < C ~ q m K E X.XX.X].=X9.@ o . . . . . . . . . . @ ^ &X!.oXMXeXhX` N.C.:.;.3 *.M   ",
"    < V W 0 6 m S / L. X].=Xm.$ X . . . . . . . . . . . . * ] ~.~.cXrX|.I >.>.<.b ;.0.n   ",
"    h ~ z < m C ] @X.X{.$XG.n X . . . . . . . . . . . . . . E oXlXvX7X3Xw.9.9.6.G k %.k v ",
"    U 0 * = K E @.}.:X;X=XK.2 . . . . . . . . . . . . . . . O &XxX6Xf.a.bX7.w.J.H H n n : ",
"    * * = 0 C ! ]. X;X,X=X6.@ . . . . . . . . . . . . . . . . [ 4XoX5.3.3Xq.s.E.9.-.-.3 4 ",
"    $ * 0 m E X.{.1X#X$X-XI X . . . . . . . . . . . . . . . . A 5X7Xs.oX4.bXd.5.xXq.-.#.%.",
"      * 0 C ! '. X:X#XpX5Xl . . . . . . . . . . . . . . . . . F 0X*X!.4.4XhX3XQ.6X7.2.-.  ",
"      = z ) ! ].>X;X$XuXp.2 . . . . . . . . . . . . . . . . . ' kXhX>X|.jXd.e.E.V.w.a.2.  ",
"      g g A X.{.>X1X:X9Xp.l X . . . . . . . . . . . . . . . X D.jXmX].*X*Xe.d.E.|.a.oX    ",
"      c z J y.].#X1X9XuX6.B O . . . . . . . . . . . . . . . $ -XqX8Xp.>Xp.oX*XP.y.i.7X    ",
"      2 c E y.*X#X9XfX5X`.P * . . . . . . . . . . . . . . . I kXmX|.gXoXp.F.M.8.P.#X;X    ",
"        c A @.i.[.aXBXK.;./.l X . . . . . . . . . . . . . $ 5XkX*X>XoX5XL.D.t.y.%X#X#X    ",
"        z V -Xu.&XaXBX,.m.9Xg.< . . . . . . . . . . . . % m.0X8X:X8XF.L.G.D.7.F.y.@.]     ",
"        0 J ] [ u.fXsXI >.fXU.x * X . . . . . . . . X % 6.0X8X:X&Xt.L.F.y.P.y.[ { _       ",
"        q { ^ F u.aXfXpX6.sXuX^ J j $ O X . . . X # : 6.0X>X:Xm.D.%Xi.&Xy.P.8.F G G       ",
"          V ^ x ^ 1XsX5X` -X5Xu.j.Y.A l 2 : : : n 9.i.&X:X&XD.H.[.*Xy.8.[ D D k l         ",
"          V V x 7.-XwXeX8.U.BX#X@XyXI.h._ L _ { t.H.F.D.m.8.[ t.t.` ` D x x j z           ",
"          V ( w.( 9X|.5XuXm.uXtX;X$X@.I.I.{ ` ` ` ` ` ` ` 8.[ [ ^ L x x x c L L           ",
"            / H G u.D.6.VX*XS.tXdX;X'.@.G.} J L c L Z ' _ ' F Z x D Z Z C A )             ",
"            A E ^ 7.F G P P.y.H.dX1X<X$X%XH.).NXY._ F ' J K Z Z A A A } } h.              ",
"                / ^ ( j k G m.y.t.@X;X;X,X%X+X=XI.h.h.{ ] ] ] @.@.@.@.j.j.                ",
"                        x k k n U.$XtX,X<X<X<X<X,X,X                                      ",
"                                                                                          ",
"                                                                                          ",
"                                                                                          ",
"                                                                                          ",
"                                                                                          ",
"                                                                                          ",
"                                                                                          ",
"                                                                                          ",
"                                                                                          ",
"                                                                                          ",
"                                                                                          ",
"                                                                                          ",
"                                                                                          ",
"                                                                                          ",
"                                                                                          ",
"                                                                                          ",
"                                                                                          ",
"                                                                                          ",
"                                                                                          ",
"                                                                                          ",
"                                                                                          "
};
