/* XPM */
static char *_e5f89e387fd4c96f476c6e7cabd912f3EPtEj5nMjdD5JT8[] = {
/* columns rows colors chars-per-pixel */
"64 65 147 2 ",
"   c None",
".  c #251F1C",
"X  c #26201D",
"o  c #2A231D",
"O  c #322A1C",
"+  c #3C331B",
"@  c #1D2222",
"#  c #222626",
"$  c #2C2521",
"%  c #242827",
"&  c #2E2824",
"*  c #252A2A",
"=  c #2D2D2B",
"-  c #332B25",
";  c #362D28",
":  c #382E2A",
">  c #36312D",
",  c #3B312C",
"<  c #2F3332",
"1  c #3B3632",
"2  c #3B3A37",
"3  c #42381A",
"4  c #423731",
"5  c #443B35",
"6  c #4A3E37",
"7  c #413F3B",
"8  c #4B401A",
"9  c #6A5B17",
"0  c #4F4237",
"q  c #44423E",
"w  c #4A4139",
"e  c #534538",
"r  c #53483C",
"t  c #5E4F3A",
"y  c #64533C",
"u  c #6D5B3B",
"i  c #756237",
"p  c #7B6737",
"a  c #7E6A36",
"s  c #756239",
"d  c #786538",
"f  c #494742",
"g  c #4D4B44",
"h  c #5D4D41",
"j  c #514E48",
"k  c #5A5146",
"l  c #57554D",
"z  c #5A574F",
"x  c #5E5C53",
"c  c #614F40",
"v  c #6F5E46",
"b  c #6E5E4C",
"n  c #615B51",
"m  c #656157",
"M  c #6D6356",
"N  c #676459",
"B  c #6E675D",
"V  c #6C695D",
"C  c #716255",
"Z  c #716658",
"A  c #75695B",
"S  c #796D5F",
"D  c #716D61",
"F  c #7B6F61",
"G  c #7D7364",
"H  c #7F776A",
"J  c #7B7868",
"K  c #767364",
"L  c #7A7D7D",
"P  c #8F7B14",
"I  c #867315",
"U  c #937C2F",
"Y  c #826D35",
"T  c #867133",
"R  c #8B7531",
"E  c #8F7931",
"W  c #907930",
"Q  c #817666",
"!  c #837768",
"~  c #857A6B",
"^  c #897E6E",
"/  c #988313",
"(  c #AF9711",
")  c #BCA210",
"_  c #BDA21F",
"`  c #97802D",
"'  c #9B832C",
"]  c #A88F27",
"[  c #A28A29",
"{  c #A98F28",
"}  c #AD9325",
"|  c #B09624",
" . c #B39923",
".. c #BA9F21",
"X. c #BBA020",
"o. c #C9AD0F",
"O. c #C2A61E",
"+. c #C6AA1C",
"@. c #CAAD1A",
"#. c #CFB119",
"$. c #D4B617",
"%. c #D6B816",
"&. c #DBBC14",
"*. c #D0B318",
"=. c #DFC013",
"-. c #E8C70F",
";. c #ECCB0D",
":. c #E5C50C",
">. c #F0CF0C",
",. c #F7D509",
"<. c #E4C411",
"1. c #84806D",
"2. c #8D8272",
"3. c #928675",
"4. c #938A77",
"5. c #968A79",
"6. c #9A8E7D",
"7. c #B98D7D",
"8. c #A1927F",
"9. c #A09B7F",
"0. c #B8917F",
"q. c #878989",
"w. c #A69481",
"e. c #AD9683",
"r. c #A39F82",
"t. c #B69381",
"y. c #A9A485",
"u. c #B0AB89",
"i. c #B7B18D",
"p. c #B9B38E",
"a. c #BEB991",
"s. c #A3A5A5",
"d. c #C29A8C",
"f. c #C1BB92",
"g. c #C8C296",
"h. c #D1CB9B",
"j. c #D6D09D",
"k. c #D8D19E",
"l. c #DBD4A0",
"z. c #E4DDA4",
"x. c #E9E3A7",
"c. c #EEE7AA",
"v. c #EFE8AA",
"b. c #F4EEAD",
"n. c #F3EDAC",
"m. c #D1D2D2",
"M. c white",
/* pixels */
"                                                            c d U ]  .                                                          ",
"                                                    u ..;.,.,.,.,.,.,.u                                                         ",
"                                              u @.,.,.,.,.,.,.,.,.,.,.}                                                         ",
"                                            ;.,.,.,.,.,.,.,.,.,.,.,.,.;.&.%.} s                                                 ",
"                                             .,.,.,.,.,.,.,.,.,.,.,.,.,.] ,.,.,.`                                               ",
"                                            y ,.,.,.,.,.,.,.$. ...<.,.,.p ,.,.,.#.=.T h                                         ",
"                                        h [ *.,.,.,.,.,.Y +.,.,.,.;.`  . .,.,.,.>.<.,.,.O.h                                     ",
"                                    h X.,.,.,.O.,.,.;.` ,.] 6 > > 1 i ;.d <.,.,.,. .,.,.,.,._ h                                 ",
"                                  R ,.,.,.,.,.p ,.,.U ,.t 1 x J ~ V f 1 %.R ,.,.,.p ,.,.,.,.,.,.p                               ",
"                                h s ,.,.,.,.,.U ,.E ,.i 7 1.g.x.c.l.r.z 5 %.;.,.,.E ,.,.,.,.,.,.,.+.                            ",
"                              ` ,...,.,.,.,.,.$.,.} ;.> K k.b.b.b.b.v.9.q R T ,.,.@.,.,.,.,.,.,.,.,.;.h                         ",
"                            @.,.,.;.<.,.,.,.,.,.$.;.' q y.b.b.b.b.b.b.j.N 6 E ,.,.,.,.,.,.,.,.,.,.,.,.,.h                       ",
"                          $.,.,.,.,. .,.,.,.,.,.{ ,.i j f.b.b.b.b.b.b.x.J 1 } ,.,.,.,.,.,.,.,.,.,.,.,.,.,.c                     ",
"                        O.,.,.,.,.,.Y ,.,.,.,.,.&.,.Y g p.b.b.b.b.b.b.z.D 5 [ ,.,.,.,.,.,.,.,.,.,.,.,.,.,.,.;.,.+.              ",
"                      R ,.,.,.,.,.,.p ,.,.,.,.,.,.%.+.1 4.v.b.b.b.b.b.a.l y p ,.,.,.,.,.,.,.,.,.,.,.,.,.,.,.,.,.,.              ",
"                    h ,.,.,.,.,.,.,.` ,.,.,.,.,.,.p ,.5 z u.c.b.b.n.h.J 1 #._ ,.,.,.,.,.,.,.,.,.,.,.,.,.,.,.,.,.,.              ",
"                    &.,.,.,.,.,.,.,.} ,.,.,.,.,.,.&.<.$.1 z 4.i.a.r.D 2 p R ,.,.,.,.,.,.,.,.,.,.,.,.,.,.,.,.,.,.,.              ",
"                  d ,.,.,.,.,.,.,.,.;.,.,.,.,.,.,.,.` ;.%.6 1 g g q 1 U  .-.,.,.,.,.,.,.,.,.,.,.,.,.,.,.,.,.,.,.&.} s           ",
"                  >.,.,.,.,.,.,.,.,.,.,.,.,.,.,.,.,.,.} O.,.#.U T  .>.T ;.,.,.,.,.,.,.,.,.,.,.,.,.,.,.,.,.,.,.,.,.,.,.,.+.h     ",
"                p ,.,.,.,.,.,.,.,.,.,.,.,.,.,.,.,.,.,.,.,.` Y ' U p O.,.,.,.,.,.,.,.,.,.,.,.,.,.,.,.,.,.,.,.,.,.,.,.,.,.,.,.[   ",
"                ;.,.,.,.,.,.,.,.,.,.,.,.,.,.,.,.,.,.,.,.,.,.,.,.,.,.,.,.,.,.,.,.,.,.,.,.,.,.,.,.,.,.,.,.,.,.,.,.,.,.,.,.,.,.,.T ",
"              y ,.,.,.,.,.,.,.,.,.,.,.,.,.,.,.,.,.,.,.,.,.,.,.,.,.,.,.,.,.,.,.%.} p v C S ! ^ 2.G & & - : 4 e i } <.,.,.,.,.,.} ",
"          W ;.,.,.,.,.,.,.,.,.,.,.,.,.,.,.,.,.,.,.,.,.,.,.,.,.,.,.,.*.E b M % @ m.< G 6.6.6.6.6.6.k . . . . . . . o , y O.,.,.| ",
"        h ,.,.,.,.,.,.,.,.,.,.,.,.,.,.,.,.,.,.,.,.,.,.,.,.,.@.Y C 2.6.6.6.g @ @ s.* 2 6.6.6.6.6.6.6.$ . . . . . . . . . . , E R ",
"        h ,.,.,.,.,.,.,.,.,.,.,.,.,.,.,.,.,.,.,.,.,.;.[ h = B 6.6.6.6.6.6.K @ @ @ @ m 6.6.6.6.6.6.6.M . . . . . . . . . . . X *.",
"          ,.,.,.,.,.,.,.,.,.,.,.,.,.,.,.,.,.,.<.E 5 % L M.* % 6.6.6.6.6.6.6.l @ @ g 6.6.6.6.6.6.6.6.5.. . . . . . . . . . X :.  ",
"          U ,.,.,.,.,.,.,.,.,.,.,.,.,.,.;.U C 5.g @ @ # q.@ % 6.6.6.6.6.6.6.6.6.6.6.e.8.6.6.6.6.6.6.6.> . . . . . . . . + ,.    ",
"      h &.,.,.,.,.,.,.,.,.,.,.,.,.,.| b 3.6.6.6.^ @ @ @ @ @ D 6.6.6.H @ @ # 6.6.8.7.7.t.6.6.6.6.6.6.6.r . . . . . . X (         ",
"    U ,.,.,.,.,.,.,.,.,.,.,.,.&.u ; $ 6.6.6.6.6.6.n @ @ @ B 6.6.6.6.< @ # ~ 6.6.8.t.0.8.6.6.6.6.6.6.6.k . . . . . I ,.          ",
"  @.,.,.,.,.,.,.,.,.,.,.,.} 6 o . . . 6.6.6.6.6.6.F 6.6.e.t.t.w.6.6.6.6.6.6.6.6.6.6.6.6.6.6.6.6.6.6.6.w . . X P ,.              ",
"' ,.,.,.,.,.,.,.,.,.;.Y , . . . . . . 3.6.6.6.6.6.2.6.w.7.7.d.e.6.6.6.6.6.6.6.6.6.6.6.6.6.6.6.6.6.6.6.& O )                     ",
"u ,.,.,.,.,.,.,.&.y & . . . . . . . . ! 6.6.6.6.6.6.5.8.t.0.t.6.6.6.6.6.6.6.6.6.6.6.6.6.6.6.6.6.6.6.2.;.                        ",
"  ,.,.,.,.,.#.e o . . . . . . . . . . M 6.6.6.6.6.6.2.6.6.6.6.6.6.6.6.6.6.6.6.6.6.6.6.6.6.6.6.6.6.6.                            ",
"  &.,.,.+.0 X . . . . . . . . . . . . A 6.6.6.6.6.6.~ 6.6.6.6.6.6.6.6.6.6.6.6.6.6.6.6.6.6.6.6.6.6.~                             ",
"  s @.0 X . . . . . . . . . . . . . . ^ 6.6.6.6.6.6.~ 6.6.6.6.6.6.6.6.6.6.6.6.6.6.6.6.6.6.6.6.6.2.                              ",
"      o.3 . . . . . . . . . . . . . . 5.6.6.6.6.6.6.^ 6.6.6.6.6.6.6.6.6.6.6.6.6.6.6.6.6.6.6.6.^                                 ",
"          ,.o.9 o . . . . . . . . . X 6.6.6.6.6.6.6.6.6.6.6.6.6.6.6.6.6.6.6.6.6.6.6.6.6.6.6.G                                   ",
"                    ;.o./ 9 8 + O o - 6.6.6.6.6.6.6.6.6.6.6.6.6.6.6.6.6.6.6.6.6.6.6.6.6.6.2.!                                   ",
"                                      6.6.6.6.6.6.6.6.6.6.6.6.6.6.6.6.6.6.6.6.6.6.6.6.3.4.6.6.~                                 ",
"                                    A 6.6.6.6.6.6.6.6.6.6.6.6.6.6.6.6.6.6.6.6.6.6.6.4.5.6.6.6.6.~                               ",
"                                    F 6.6.6.6.6.6.6.6.6.6.6.6.6.6.6.6.6.6.6.6.6.6.6.3.6.6.6.6.6.6.!                             ",
"                                    G 6.6.6.6.6.6.6.6.6.6.6.6.6.6.6.6.6.6.6.6.6.6.! 6.6.6.6.6.6.6.6.F                           ",
"                                    ~ 6.6.6.6.6.6.6.6.6.6.6.6.6.6.6.6.6.6.6.6.6.2.6.6.6.6.6.6.6.6.6.6.                          ",
"                                    ~ 6.6.6.6.6.6.6.6.6.6.6.6.6.6.6.6.6.6.6.6.6.2.6.6.6.6.6.6.6.6.6.6.3.                        ",
"                                    ^ 6.6.6.6.6.6.6.6.6.6.6.6.6.6.6.6.6.6.6.6.2.6.6.6.6.6.6.5.^ 6.6.6.6.F                       ",
"                                    ^ 6.6.6.6.6.6.6.6.6.6.6.6.6.6.6.6.6.6.6.6.~ 6.6.6.6.6.~ 5.6.6.6.6.6.5.                      ",
"                                    ~ 6.6.6.6.6.6.6.6.6.6.6.6.6.6.6.6.6.6.6.6.6.6.6.6.5.~ 6.6.6.6.6.6.6.6.                      ",
"                                    Q 6.6.6.6.6.6.6.6.6.6.6.6.6.6.6.6.6.6.6.G G 6.5.! 6.6.6.6.6.6.6.6.6.6.Q                     ",
"                                    F 6.6.6.6.6.6.6.6.6.6.6.6.6.6.6.6.6.6.6.5.Z A 6.6.6.6.6.6.6.6.6.6.6.6.^                     ",
"                                    A 6.6.6.6.6.6.6.6.6.6.6.6.6.6.6.6.6.6.6.6.6.6.6.6.6.6.6.6.6.6.6.6.6.6.2.Q 2.2.              ",
"                                      6.6.6.6.6.6.6.6.6.6.6.6.6.6.6.6.6.6.6.6.6.6.6.4.! ~ 6.6.6.6.6.6.6.6.~ 6.5.                ",
"                                      6.6.6.6.6.6.6.6.6.6.6.6.6.6.6.6.6.6.6.6.6.6.2.6.6.6.6.6.6.6.6.6.3.6.! !                   ",
"                                      ^ 6.6.6.6.6.6.6.6.6.6.6.6.6.6.6.6.6.6.6.6.6.4.6.6.6.6.6.6.6.6.6.6.6.                      ",
"                                      A 6.6.3.6.6.6.6.6.6.6.6.6.6.6.6.6.6.6.6.6.! 6.6.6.6.6.6.6.6.6.~ 6.S                       ",
"                                        5.6.3.6.6.6.6.6.2.6.6.6.6.6.6.6.6.6.6.5.6.6.6.6.6.6.6.6.6.6.^ ~                         ",
"                                        A ~ 6.6.6.6.6.6.6.~ 6.6.6.6.6.6.6.6.6.! 6.6.6.6.6.6.6.6.6.3.^                           ",
"                                          Q 6.6.6.6.6.6.6.^ 6.6.6.6.6.6.6.6.6.5.6.6.6.6.6.6.6.6.6.A                             ",
"                                          S 6.6.6.6.6.6.6.3.6.6.6.6.6.6.6.6.2.6.6.6.6.6.6.6.6.6.~                               ",
"                                            ^ 6.6.6.6.6.6.^ 6.6.6.6.6.6.6.6.! 6.6.6.6.6.6.6.6.3.                                ",
"                                              S 5.6.6.6.6.A ! 2.5.6.6.6.6.6.2.6.6.6.6.6.6.6.5.                                  ",
"                                              Z Z Z G G                     5.6.6.6.6.6.6.2.                                    ",
"                                            Z Z Z Z Z                       ! 6.6.6.6.6.G                                       ",
"                                                Z   Z                     Z Z Z Q 6.~                                           ",
"                                                                            Z Z Z Z                                             ",
"                                                                                Z                                               "
};
