/* XPM */
static char *_92aa9fdf768471ca578c51d4e2cf316QG8lFG8q3EroWm3U[] = {
/* columns rows colors chars-per-pixel */
"64 64 13 1 ",
"  c #030203",
". c #990030",
"X c #ED1C24",
"o c #FF7E00",
"O c #22B14C",
"+ c #2F3699",
"@ c #6F3198",
"# c #2196F3",
"$ c #03A9F4",
"% c #90A4AE",
"& c #D3F9BC",
"* c #B0BEC5",
"= c #99D9EA",
/* pixels */
"                                                                ",
"   +     +    +     +      +     +    +    +     +    +    +   +",
"  + +    +   + +   + +    + +   + +   +   + +    +    +    +  + ",
"  + +    +   + +   + +    + +   + +   +   + +    +    +    +  + ",
"  + +    +   + +   + +    + +   + +   +   + +    +    +    +  + ",
"   +     +    +     +      +     +    +    +     +    +    +   +",
"                                                                ",
"                                                                ",
"                            ******                              ",
"                            ******                              ",
"   @     @    @          ***$$$$$$***      @     @    @    @   @",
"   @    @ @   @      ****$$$$$$$$$$$$****        @   @ @  @ @  @",
"   @    @ @   @      ****$$$$$$$$$$$$****        @   @ @  @ @  @",
"   @    @ @       ***$$$$$$$$$$$$$$$$$$$$***     @   @ @  @ @  @",
"   @     @        ***$$$$$$$$$$$$$$$$$$$$***     @    @    @   @",
"              ****$$$$$$$$$$$$$$$$$$$$$$$$$$****                ",
"           ***$$$$$$$$$$$$$$$$$$$$$$$$$$$$$$$$$$*%%             ",
"           ***$$$$$$$$$$$$$$$$$$$$$$$$$$$$$$$$$$*%%             ",
"           **$$$$$$XX$$$$$$$$$$$$$$$$$$$$XX$$$$$#%%             ",
"   =       **$$$$$$XXX$$$$$$$$$$$$$$$$$$XXX$$$$$#%%   =    =   =",
"  = =   =  **$$$$$$$XXX$$$$$$$$$$$$$$$$XXX$$$$$$#%%  = =  = =  =",
"  = =   =  **$$$$$$$$XXX$$$$$$$$$$$$$$XXX$$$$$$$$%%  = =  = =  =",
"  = =   =  **$$$$$$$$$XXX$$$$$$$$$$$$XXX$$$$$$$$$%%  = =  = =  =",
"   =     =   *$$$$$$$$$XXX$$$$$$$$$$XXX$$$$$$$##%     =    =   =",
"             *$$$$$$$$$$XXX$$$$$$$$XXX$$$$$$$$##%               ",
"             *$$$$$$$$$$$XXX$$$$$$XXX$$$$$$$$$##%               ",
"             *$$$$$$$$$$$$XXX$$$$XXX$$$$$$$$$$##%               ",
"             *$$$$$$$$$$$$$XXX$$XXX$$$$$$$$$$$##%               ",
"   O     O   *$$$$$$$$$$$$$$XXXXXX$$$$$$$$$$$$##%     O    O   O",
"  O O    O    **$$$$$$$$$$$$$XXXX$$$$$$$$$$$##%%  O   O   O O O ",
"  O O    O    **$$$$$$$$$$$$$XXXX$$$$$$$$$$$##%%  O   O   O O O ",
"  O O    O    **$$$$$$$$$$$$XXXXXX$$$$$$$$$$##%%  O   O   O O O ",
"   O     O    **$$$$$$$$$$$XXX$$XXX$$$$$$$$$##%% O    O    O   O",
"              **$$$$$$$$$$XXX$$$$XXX$$$$$$$$##%%                ",
"                **$$$$$$$XXX$$$$$$XXX$$$$$##%%                  ",
"                **$$$$$$XXX$$$$$$$$XXX$$$$##%%                  ",
"                **$$$$$XXX$$$$$$$$$$XXX$$$##%%                  ",
"   .     .    .   **$$XXX$$$$$$$$$$$$XXX$#%%     .    .    .   .",
"   .     .    .   **$$XX$$$$$$$$$$$$$$XX$#%%    . .   .   . . . ",
"   .     .    .     *$$$$$$$$$$$$$$$$$$##%  .   . .   .   . . . ",
"   .     .    .      **$$$$$$$$$$$$$$##%% . .   . .   .   . . . ",
"   .     .    .      **$$$$$$$$$$$$$$##%%  .     .    .    .   .",
"                       **$$$$$$$$$$##%%                         ",
"                       **$$$$$$$$$$##%%                         ",
"                         **$$$$$$$#%%                           ",
"                           *$$$$##%                             ",
"   &     &    &      &     *$$$$##%   &    &     &    &    &   &",
"  & &   & &   &     & &     ****%%    &    &     &   & &   &  & ",
"  & &   & &   &     & &    &  **  &   &    &     &   & &   &  & ",
"  & &   & &   &     & &    &      &   &    &     &   & &   &  & ",
"   &     &    &      &     &     &    &    &     &    &    &   &",
"                                                                ",
"                                                                ",
"                                                                ",
"                                                                ",
"   o     o    o      o     o     o    o    o     o              ",
"  o o   o o   o     o o    o     o    o   o o   o o             ",
"  o o   o o   o     o o    o     o    o   o o   o o             ",
"  o o   o o   o     o o    o     o    o   o o   o o             ",
"   o     o    o      o     o     o    o    o     o              ",
"                                                                ",
"                                                                ",
"                                                                ",
"                                                                "
};
