/* XPM */
static char *ed5a78fde8be47f2fe39dfc3d2b938272xdkZtNUjYnSsXO3[] = {
/* columns rows colors chars-per-pixel */
"64 64 9 1 ",
"  c #030203",
". c #990030",
"X c #FF7E00",
"o c #22B14C",
"O c #2F3699",
"+ c #6F3198",
"@ c #B4B4B4",
"# c #D3F9BC",
"$ c #99D9EA",
/* pixels */
"                                                                ",
"   O     O    O     O      O     O    O    O     O    O    O   O",
"  O O    O   O O   O O    O O   O O   O   O O    O    O    O  O ",
"  O O    O   O O   O O    O O   O O   O   O O    O    O    O  O ",
"  O O    O   O O   O O    O O   O O   O   O O    O    O    O  O ",
"   O     O    O     O      O     O    O    O     O    O    O   O",
"                                                                ",
"                                                                ",
"                                                                ",
"                                                                ",
"   +     +    +      +     +     +    +    +     +    +    +   +",
"   +    + +   +     + +    +     +   + +   +     +   + +  + +  +",
"   +    + +   +     + +    +     +   + +   +     +   + +  + +  +",
"   +    + +   +     + +    +     +   + +   +     +   + +  + +  +",
"   +     +    +      +     +     +    +    +     +    +    +   +",
"                                                                ",
"                                                                ",
"                                                                ",
"                                                                ",
"   $     $    $      $     $     $    $    $     $    $    $   $",
"  $ $   $ $  $ $     $    $ $   $ $  $ $   $    $ $  $ $  $ $  $",
"  $ $   $ $  $ $     $    $ $   $ $  $ $   $    $ $  $ $  $ $  $",
"  $ $   $ $  $ $     $    $ $   $ $  $ $   $    $ $  $ $  $ $  $",
"   $     $    $      $     $     $    $    $     $    $    $   $",
"                                                                ",
"                                                                ",
"                                                                ",
"                                                                ",
"   o     o    o      o     o     o    o    o     o    o    o   o",
"  o o    o   o o    o o   o o   o o  o o   o    o o   o   o o o ",
"  o o    o   o o    o o   o o   o o  o o   o    o o   o   o o o ",
"  o o    o   o o    o o   o o   o o  o o   o    o o   o   o o o ",
"   o     o    o      o     o     o    o    o     o    o    o   o",
"                                                                ",
"                                                                ",
"                                                                ",
"                                                                ",
"   .     .    .      .     .     .    .    .     .    .    .   .",
"   .     .    .     . .    .    . .  . .  . .   . .   .   . . . ",
"   .     .    .     . .    .    . .  . .  . .   . .   .   . . . ",
"   .     .    .     . .    .    . .  . .  . .   . .   .   . . . ",
"   .     .    .      .     .     .    .    .     .    .    .   .",
"                                                                ",
"                                                                ",
"                                                                ",
"                                                                ",
"   #     #    #      #     #     #    #    #     #    #    #   #",
"  # #   # #   #     # #    #    # #   #    #     #   # #   #  # ",
"  # #   # #   #     # #    #    # #   #    #     #   # #   #  # ",
"  # #   # #   #     # #    #    # #   #    #     #   # #   #  # ",
"   #     #    #      #     #     #    #    #     #    #    #   #",
"                                                                ",
"                                                                ",
"                                                                ",
"                                                                ",
"   X     X    X      X     X     X    X    X     X    X    X   X",
"  X X   X X   X     X X    X     X    X   X X   X X  X X   X   X",
"  X X   X X   X     X X    X     X    X   X X   X X  X X   X   X",
"  X X   X X   X     X X    X     X    X   X X   X X  X X   X   X",
"   X     X    X      X     X     X    X    X     X    X    X   X",
"                                                                ",
"                                                                ",
"   @     @    @      @     @     @    @    @     @    @    @   @",
"  @ @   @ @   @      @    @ @    @    @    @    @ @   @   @ @  @"
};
